<?xml version="1.0" encoding="UTF-8" standalone="no"?>
<!-- Created with Inkscape (http://www.inkscape.org/) -->

<svg
   xmlns:dc="http://purl.org/dc/elements/1.1/"
   xmlns:cc="http://creativecommons.org/ns#"
   xmlns:rdf="http://www.w3.org/1999/02/22-rdf-syntax-ns#"
   xmlns:svg="http://www.w3.org/2000/svg"
   xmlns="http://www.w3.org/2000/svg"
   xmlns:sodipodi="http://sodipodi.sourceforge.net/DTD/sodipodi-0.dtd"
   xmlns:inkscape="http://www.inkscape.org/namespaces/inkscape"
   width="1680"
   height="360"
   viewBox="0 0 444.5 95.250003"
   version="1.1"
   id="svg8"
   inkscape:version="0.92.1 r15371"
   sodipodi:docname="final.svg">
  <defs
     id="defs2" />
  <sodipodi:namedview
     id="base"
     pagecolor="#ffffff"
     bordercolor="#666666"
     borderopacity="1.0"
     inkscape:pageopacity="0.0"
     inkscape:pageshadow="2"
     inkscape:zoom="0.39"
     inkscape:cx="723.77155"
     inkscape:cy="301.53444"
     inkscape:document-units="mm"
     inkscape:current-layer="layer1"
     showgrid="true"
     units="px"
     objecttolerance="25"
     inkscape:pagecheckerboard="false"
     inkscape:window-width="1050"
     inkscape:window-height="1597"
     inkscape:window-x="0"
     inkscape:window-y="24"
     inkscape:window-maximized="1"
     inkscape:snap-tangential="true">
    <inkscape:grid
       type="xygrid"
       id="grid4485"
       spacingx="1.0583333"
       spacingy="1.0583333"
       dotted="true" />
  </sodipodi:namedview>
  <metadata
     id="metadata5">
    <rdf:RDF>
      <cc:Work
         rdf:about="">
        <dc:format>image/svg+xml</dc:format>
        <dc:type
           rdf:resource="http://purl.org/dc/dcmitype/StillImage" />
        <dc:title />
      </cc:Work>
    </rdf:RDF>
  </metadata>
  <g
     inkscape:label="Vrstva 1"
     inkscape:groupmode="layer"
     id="layer1"
     transform="translate(0,-201.74999)">
    <circle
       style="opacity:1;fill:#8e0000;fill-opacity:1;fill-rule:nonzero;stroke:#eeeeee;stroke-width:4.23333311;stroke-linecap:round;stroke-linejoin:round;stroke-miterlimit:4;stroke-dasharray:none;stroke-dashoffset:0;stroke-opacity:1;paint-order:stroke fill markers"
       id="path4487"
       cx="48.10606"
       cy="249.47119"
       r="40.409092" />
    <ellipse
       style="opacity:1;fill:#333333;fill-opacity:1;fill-rule:nonzero;stroke:#ffffff;stroke-width:1.323;stroke-linecap:round;stroke-linejoin:round;stroke-miterlimit:4;stroke-dasharray:none;stroke-dashoffset:0;stroke-opacity:1;paint-order:normal"
       id="path4491-7"
       cx="48.130882"
       cy="269.06143"
       rx="28.812094"
       ry="5.7440929" />
    <ellipse
       style="opacity:1;fill:#333333;fill-opacity:1;fill-rule:nonzero;stroke:#ffffff;stroke-width:1.323;stroke-linecap:round;stroke-linejoin:round;stroke-miterlimit:4;stroke-dasharray:none;stroke-dashoffset:0;stroke-opacity:1;paint-order:normal"
       id="path4491-0"
       cx="48.157608"
       cy="263.27802"
       rx="28.812094"
       ry="5.7440929" />
    <rect
       style="opacity:1;fill:#ffffff;fill-opacity:1;fill-rule:nonzero;stroke:#333333;stroke-width:1.32291667;stroke-linecap:round;stroke-linejoin:round;stroke-miterlimit:4;stroke-dasharray:none;stroke-dashoffset:0;stroke-opacity:1;paint-order:normal"
       id="rect4496"
       width="11.545454"
       height="27.709091"
       x="42.333332"
       y="235.61665" />
    <rect
       style="opacity:1;fill:#ffffff;fill-opacity:1;fill-rule:nonzero;stroke:#333333;stroke-width:1.32291667;stroke-linecap:round;stroke-linejoin:round;stroke-miterlimit:4;stroke-dasharray:none;stroke-dashoffset:0;stroke-opacity:1;paint-order:normal"
       id="rect4496-3"
       width="11.545454"
       height="39.254532"
       x="59.651516"
       y="224.07118" />
    <rect
       style="opacity:1;fill:#ffffff;fill-opacity:1;fill-rule:nonzero;stroke:#333333;stroke-width:1.32291667;stroke-linecap:round;stroke-linejoin:round;stroke-miterlimit:4;stroke-dasharray:none;stroke-dashoffset:0;stroke-opacity:1;paint-order:normal"
       id="rect4496-3-6"
       width="11.545454"
       height="16.163633"
       x="25.015154"
       y="247.16209" />
    <g
       id="g4700"
       transform="matrix(0.95493434,0,0,0.95493434,100.71818,-79.735043)">
      <path
         transform="matrix(0.26458333,0,0,0.26458333,0,212.33332)"
         inkscape:connector-curvature="0"
         id="path4630"
         d="m 48.305722,405.74867 c -0.02463,-0.52012 2.040879,-10.75172 4.590023,-22.7369 l 4.634808,-21.79123 h 25.488014 c 14.018408,0 25.473233,0.41434 25.455173,0.92076 -0.0181,0.50641 -2.13478,10.58869 -4.70383,22.40507 l -4.670987,21.48431 -25.374208,0.33182 c -13.955814,0.18251 -25.394361,-0.0937 -25.418993,-0.61383 z"
         style="opacity:1;fill:#8e0000;fill-opacity:1;fill-rule:nonzero;stroke:#eeeeee;stroke-width:16;stroke-linecap:butt;stroke-linejoin:round;stroke-miterlimit:4;stroke-dasharray:none;stroke-dashoffset:0;stroke-opacity:1;paint-order:stroke fill markers" />
      <path
         d="m 33.170377,345.6463 q 0,-8.70478 7.122091,-14.44202 7.221008,-5.73724 18.596569,-5.73724 9.298285,0 14.639853,3.8578 5.341568,3.75888 5.341568,10.4853 0,1.58269 -0.49459,3.75888 h -13.35392 q 0.296754,-1.28593 0.296754,-1.87944 0,-2.37403 -2.37403,-3.75888 -2.275112,-1.38485 -6.330747,-1.38485 -3.956717,0 -6.330747,1.48377 -2.37403,1.38485 -2.37403,3.75888 0,1.48377 1.285933,2.47295 1.384851,0.89026 5.143732,1.97835 l 9.49612,2.76971 q 12.067987,3.65996 12.067987,12.26582 0,9.49612 -7.517762,15.13444 -7.418844,5.63832 -19.981421,5.63832 -6.231829,0 -10.782053,-1.48377 -4.550225,-1.48377 -6.825337,-3.8578 -2.176194,-2.47294 -3.264291,-4.74806 -0.98918,-2.37403 -0.98918,-4.74806 0,-0.98918 0.395672,-2.96753 h 13.551755 q 0.395672,6.72641 10.4853,6.72641 4.550225,0 7.418845,-1.48376 2.868619,-1.58269 2.868619,-3.95672 0,-1.68161 -1.483769,-2.67079 -1.38485,-0.98917 -6.033993,-2.47294 l -7.814516,-2.47295 q -6.528583,-2.1762 -9.693956,-5.14373 -3.066456,-2.96754 -3.066456,-7.12209 z"
         style="font-style:italic;font-variant:normal;font-weight:600;font-stretch:normal;font-size:medium;line-height:125%;font-family:FreeSans;-inkscape-font-specification:'FreeSans, Semi-Bold Italic';font-variant-ligatures:normal;font-variant-caps:normal;font-variant-numeric:normal;font-feature-settings:normal;text-align:start;letter-spacing:0px;word-spacing:0px;writing-mode:lr-tb;text-anchor:start;fill:#333333;fill-opacity:1;stroke:#eeeeee;stroke-width:4.23333311;stroke-linecap:butt;stroke-linejoin:round;stroke-miterlimit:4;stroke-dasharray:none;stroke-opacity:1;paint-order:stroke fill markers"
         id="path4610"
         inkscape:connector-curvature="0" />
      <path
         d="m 116.62156,327.4454 -1.97836,9.19937 h -7.7156 l -6.13291,29.08186 q -0.59351,2.57187 -0.59351,3.36321 0,2.47295 3.75888,2.47295 1.18702,0 3.26429,-0.29675 l -1.97835,9.69395 q -3.8578,1.0881 -8.408028,1.0881 -5.440486,0 -8.309106,-2.27511 -2.86862,-2.17619 -2.86862,-6.23183 0,-1.78052 0.49459,-4.05563 l 6.924255,-32.84075 h -6.825337 l 1.978358,-9.19937 h 6.825337 l 3.066456,-14.3431 h 13.848505 l -3.06645,14.3431 z"
         style="font-style:italic;font-variant:normal;font-weight:600;font-stretch:normal;font-size:medium;line-height:125%;font-family:FreeSans;-inkscape-font-specification:'FreeSans, Semi-Bold Italic';font-variant-ligatures:normal;font-variant-caps:normal;font-variant-numeric:normal;font-feature-settings:normal;text-align:start;letter-spacing:0px;word-spacing:0px;writing-mode:lr-tb;text-anchor:start;fill:#333333;fill-opacity:1;stroke:#eeeeee;stroke-width:4.23333311;stroke-linecap:butt;stroke-linejoin:round;stroke-miterlimit:4;stroke-dasharray:none;stroke-opacity:1;paint-order:stroke fill markers"
         id="path4612"
         inkscape:connector-curvature="0" />
      <path
         d="m 146.8889,325.46704 q 5.63832,0 9.59503,1.18702 4.05564,1.08809 5.93508,3.06645 1.87944,1.87944 2.67078,3.75888 0.79135,1.87944 0.79135,3.95672 0,1.78052 -0.59351,4.45131 l -6.23183,29.67537 q -0.29675,1.38485 -0.29675,2.07728 0,2.07727 2.07727,4.45131 l -0.39567,1.6816 h -15.13444 q -0.69243,-1.48377 -0.69243,-2.67078 0,-1.18702 0.29676,-2.67079 -8.50694,7.61668 -16.5193,7.61668 -6.6275,0 -10.68313,-3.56104 -4.05564,-3.56105 -4.05564,-9.39721 0,-1.48376 0.39567,-3.36321 0.39568,-1.97835 1.68161,-4.64914 1.38485,-2.67078 3.46213,-4.94589 2.07727,-2.27512 5.83615,-4.25347 3.75889,-2.07728 8.60586,-2.86862 l 5.73724,-0.89027 q 0.39567,-0.0989 1.68161,-0.19783 1.28593,-0.19784 1.87944,-0.29676 0.59351,-0.0989 1.78052,-0.29675 1.28593,-0.29675 1.87944,-0.49459 0.59351,-0.29675 1.58269,-0.59351 0.98918,-0.39567 1.48377,-0.89026 0.5935,-0.49459 1.08809,-1.18701 0.59351,-0.69243 0.79135,-1.48377 0.29675,-0.89026 0.29675,-1.87944 0,-4.25347 -7.22101,-4.25347 -4.74806,0 -7.31992,1.6816 -2.47295,1.68161 -3.75888,5.73724 h -12.95825 q 2.07727,-9.69395 8.3091,-14.04634 6.33075,-4.45131 18.00307,-4.45131 z m 1.38485,32.84075 0.79134,-3.75888 q -1.18702,0.69242 -4.64914,1.38485 l -6.52859,1.0881 q -4.84697,0.79134 -7.51776,3.16537 -2.57186,2.37403 -2.57186,5.83616 0,4.94589 7.221,4.94589 5.04482,0 8.40803,-3.26429 3.46213,-3.26429 4.84698,-9.3972 z"
         style="font-style:italic;font-variant:normal;font-weight:600;font-stretch:normal;font-size:medium;line-height:125%;font-family:FreeSans;-inkscape-font-specification:'FreeSans, Semi-Bold Italic';font-variant-ligatures:normal;font-variant-caps:normal;font-variant-numeric:normal;font-feature-settings:normal;text-align:start;letter-spacing:0px;word-spacing:0px;writing-mode:lr-tb;text-anchor:start;fill:#333333;fill-opacity:1;stroke:#eeeeee;stroke-width:4.23333311;stroke-linecap:butt;stroke-linejoin:round;stroke-miterlimit:4;stroke-dasharray:none;stroke-opacity:1;paint-order:stroke fill markers"
         id="path4614"
         inkscape:connector-curvature="0" />
      <path
         d="m 204.72033,327.4454 -1.97836,9.19937 h -7.7156 l -6.13291,29.08186 q -0.59351,2.57187 -0.59351,3.36321 0,2.47295 3.75888,2.47295 1.18702,0 3.26429,-0.29675 l -1.97835,9.69395 q -3.8578,1.0881 -8.40803,1.0881 -5.44048,0 -8.3091,-2.27511 -2.86862,-2.17619 -2.86862,-6.23183 0,-1.78052 0.49459,-4.05563 l 6.92425,-32.84075 h -6.82534 l 1.97836,-9.19937 h 6.82534 l 3.06645,-14.3431 h 13.84851 l -3.06645,14.3431 z"
         style="font-style:italic;font-variant:normal;font-weight:600;font-stretch:normal;font-size:medium;line-height:125%;font-family:FreeSans;-inkscape-font-specification:'FreeSans, Semi-Bold Italic';font-variant-ligatures:normal;font-variant-caps:normal;font-variant-numeric:normal;font-feature-settings:normal;text-align:start;letter-spacing:0px;word-spacing:0px;writing-mode:lr-tb;text-anchor:start;fill:#333333;fill-opacity:1;stroke:#eeeeee;stroke-width:4.23333311;stroke-linecap:butt;stroke-linejoin:round;stroke-miterlimit:4;stroke-dasharray:none;stroke-opacity:1;paint-order:stroke fill markers"
         id="path4616"
         inkscape:connector-curvature="0" />
      <g
         transform="translate(0.689543,-0.38701703)"
         id="g4689">
        <path
           style="opacity:1;fill:#8e0000;fill-opacity:1;fill-rule:nonzero;stroke:#eeeeee;stroke-width:4.23333311;stroke-linecap:butt;stroke-linejoin:round;stroke-miterlimit:4;stroke-dasharray:none;stroke-dashoffset:0;stroke-opacity:1;paint-order:stroke fill markers"
           d="m 205.9752,382.28283 c 0.11841,-0.34096 14.66434,-68.6496 15.37215,-72.18864 l 0.2131,-1.06552 16.70929,0.001 c 13.20694,10e-4 17.35134,0.10547 19.77244,0.49815 9.64193,1.56379 15.19105,6.36484 17.48615,15.12881 0.86338,3.29693 1.18194,10.71128 0.65363,15.21318 -1.58974,13.54665 -6.40874,24.51931 -14.20254,32.33859 -5.81348,5.83248 -13.0944,9.1527 -22.23813,10.14094 -4.87217,0.52657 -33.95219,0.46901 -33.76609,-0.0668 z m 34.26646,-12.25785 c 6.91029,-0.99918 12.73667,-5.19505 15.95986,-11.4935 2.74573,-5.36545 4.72388,-12.44875 5.30642,-19.00108 0.40334,-4.53676 0.1977,-7.36441 -0.76141,-10.46963 -0.87229,-2.82416 -3.47955,-5.54337 -6.43667,-6.71305 -1.89782,-0.75068 -2.45781,-0.79639 -11.20525,-0.91466 l -9.2076,-0.12449 -0.19269,0.77711 c -0.10597,0.42741 -2.38351,11.2027 -5.06118,23.94509 -2.67768,12.74239 -4.94553,23.4305 -5.03967,23.75135 -0.15936,0.54313 0.33045,0.58291 7.10171,0.57676 4.00008,-0.004 8.2915,-0.15389 9.53648,-0.3339 z"
           id="path4632"
           inkscape:connector-curvature="0" />
        <path
           style="opacity:1;fill:#8e0000;fill-opacity:1;fill-rule:nonzero;stroke:#eeeeee;stroke-width:4.23333311;stroke-linecap:butt;stroke-linejoin:round;stroke-miterlimit:4;stroke-dasharray:none;stroke-dashoffset:0;stroke-opacity:1;paint-order:stroke fill markers"
           d="m 277.43708,381.83477 c 0.10532,-0.42568 3.5818,-16.74987 7.72547,-36.27598 4.14368,-19.52611 7.61176,-35.76454 7.70688,-36.08539 0.16194,-0.54639 1.33162,-0.58336 18.4555,-0.58336 19.431,0 21.03562,0.10615 25.00828,1.65437 4.08623,1.5925 7.1917,4.66922 8.67885,8.59853 0.99405,2.6264 1.20935,6.60122 0.51694,9.54379 -1.0732,4.56097 -4.31849,9.21162 -8.75314,12.54361 -1.0685,0.80284 -2.07963,1.57454 -2.24697,1.71489 -0.16732,0.14034 0.76414,1.37989 2.06994,2.75454 2.61449,2.75241 3.48806,4.21363 4.23621,7.08596 1.22643,4.70848 0.0198,10.84703 -3.21689,16.36733 -1.49081,2.54256 -6.2951,7.34785 -8.80201,8.80386 -2.81521,1.63507 -6.1245,2.90469 -9.64626,3.70081 -2.79246,0.63125 -4.37788,0.68878 -22.46439,0.8151 l -19.45992,0.13591 z m 41.57574,-12.54129 c 2.95174,-0.97091 4.68588,-2.52521 6.13819,-5.50166 1.94381,-3.98371 1.94938,-8.20614 0.0138,-10.50641 -0.44931,-0.53397 -1.60793,-1.32809 -2.57472,-1.76471 -1.71803,-0.7759 -2.00472,-0.7963 -12.67508,-0.90197 -6.00451,-0.0595 -10.9173,-0.0294 -10.9173,0.0668 0,0.0962 -0.90005,4.40193 -2.0001,9.56823 -1.10006,5.1663 -2.00013,9.53758 -2.00013,9.71395 0,0.20162 4.0529,0.26913 10.9173,0.18185 10.05929,-0.12791 11.08866,-0.1952 13.09802,-0.85613 z m 5.50093,-31.83208 c 2.35078,-0.77564 4.25981,-2.52924 5.50343,-5.0554 0.86227,-1.75151 1.0483,-2.53391 1.06035,-4.45954 0.0168,-2.68994 -0.6174,-4.10631 -2.36666,-5.28514 -1.85494,-1.25003 -3.96439,-1.45435 -14.03864,-1.35973 l -9.49363,0.0892 -1.56394,7.33375 c -0.86016,4.03356 -1.65974,7.83251 -1.77679,8.4421 l -0.21288,1.10835 10.60373,-0.1294 c 8.7432,-0.1067 10.89873,-0.22674 12.28503,-0.68415 z"
           id="path4634"
           inkscape:connector-curvature="0" />
      </g>
      <path
         transform="matrix(0.26458333,0,0,0.26458333,0,212.33332)"
         inkscape:connector-curvature="0"
         id="path4646"
         d="M -0.39840291,632.04277 C -0.2445652,631.62861 9.4735046,586.22199 21.197308,531.13916 L 42.513314,430.98855 H 68.27121 c 17.582898,0 25.757898,0.20069 25.757898,0.63234 0,0.68953 -42.026055,198.39994 -42.53839,200.12068 -0.292628,0.98282 -2.069708,1.05421 -26.241355,1.05421 -20.4895463,0 -25.86880657,-0.15793 -25.64776591,-0.75301 z"
         style="opacity:1;fill:#333333;fill-opacity:1;fill-rule:nonzero;stroke:#eeeeee;stroke-width:16;stroke-linecap:butt;stroke-linejoin:round;stroke-miterlimit:4;stroke-dasharray:none;stroke-dashoffset:0;stroke-opacity:1;paint-order:stroke fill markers" />
    </g>
  </g>
</svg>
